<?xml version="1.0" standalone="no"?>
<!DOCTYPE svg PUBLIC "-//W3C//DTD SVG 20010904//EN"
 "http://www.w3.org/TR/2001/REC-SVG-20010904/DTD/svg10.dtd">
<svg version="1.0" xmlns="http://www.w3.org/2000/svg"
 width="250.000000pt" height="250.000000pt" viewBox="0 0 250.000000 250.000000"
 preserveAspectRatio="xMidYMid meet">
<metadata>
Created by potrace 1.11, written by Peter Selinger 2001-2013
</metadata>
<g transform="translate(0.000000,250.000000) scale(0.100000,-0.100000)"
fill="#000000" stroke="none">
<path d="M1070 2476 c-158 -25 -271 -63 -408 -137 -539 -290 -788 -917 -596
-1499 61 -184 159 -338 314 -490 128 -127 229 -196 381 -262 79 -34 296 -96
303 -86 1 2 14 23 28 48 15 25 56 74 91 109 l65 64 30 -22 c40 -28 109 -106
136 -154 20 -38 22 -38 66 -33 25 4 46 10 48 15 2 5 11 7 20 4 10 -2 58 10
107 28 474 167 796 582 834 1077 50 642 -389 1213 -1020 1326 -123 22 -299 27
-399 12z m360 -106 c156 -25 313 -87 449 -177 269 -179 453 -467 502 -783 19
-122 7 -346 -25 -462 -85 -316 -304 -587 -593 -732 -39 -20 -74 -36 -77 -36
-3 0 -6 180 -6 400 0 387 1 401 20 420 11 11 29 20 40 20 43 0 55 -29 89 -226
19 -104 39 -203 46 -221 28 -67 144 -85 192 -29 36 42 38 70 13 205 -102 573
-107 590 -186 660 -56 49 -100 61 -221 61 l-101 0 15 -42 c10 -29 14 -69 11
-123 -5 -97 -40 -170 -125 -265 l-55 -60 59 -65 c32 -36 72 -91 88 -123 27
-51 30 -66 30 -152 0 -89 -3 -101 -33 -161 -18 -35 -58 -93 -89 -127 l-55 -63
54 -57 c30 -31 60 -67 66 -78 10 -19 9 -23 -13 -28 -24 -6 -25 -7 -10 -36 27
-52 16 -46 -16 8 -16 29 -60 85 -97 123 l-67 70 72 75 c117 121 157 218 134
323 -17 79 -45 125 -131 214 l-78 82 64 65 c112 113 143 172 144 275 0 32 -7
78 -16 101 l-16 42 -236 4 c-131 3 -248 2 -262 -2 -36 -9 -62 -87 -55 -165 7
-85 46 -156 134 -248 l76 -79 -73 -76 c-79 -83 -132 -175 -132 -229 0 -33 0
-33 49 -33 44 0 50 3 53 23 3 22 4 22 188 22 l185 0 0 -45 0 -45 -187 -3
c-183 -2 -188 -2 -188 18 0 17 -6 20 -51 20 l-52 0 6 -40 c9 -66 47 -131 128
-215 l77 -80 -81 -85 c-79 -82 -104 -95 -130 -71 -8 8 51 88 96 130 l26 24
-58 63 c-32 35 -73 94 -92 131 -29 60 -33 77 -34 148 0 69 5 89 31 146 17 36
57 96 88 132 31 37 56 69 56 71 0 3 -25 33 -55 67 -117 131 -146 246 -100 397
7 22 6 22 -79 22 -166 0 -230 -34 -288 -150 -34 -68 -42 -104 -88 -361 -58
-334 -60 -365 -24 -408 46 -55 138 -49 178 11 8 13 31 111 50 218 19 107 38
203 41 213 15 38 101 34 110 -6 3 -12 4 -198 3 -414 l-3 -392 -79 40 c-259
130 -461 361 -561 639 -37 106 -55 199 -62 322 -31 572 373 1078 947 1182 91
17 282 20 370 6z m10 -1050 l0 -50 -184 0 c-158 0 -185 2 -190 16 -8 21 -8 69
1 77 3 4 89 7 190 7 l183 0 0 -50z m-130 -215 l-53 -54 -36 28 c-20 16 -47 41
-60 55 l-24 26 113 0 114 0 -54 -55z m15 -264 l49 -51 -124 0 -124 0 58 59
c68 68 66 69 141 -8z m-15 -416 c-30 -30 -59 -55 -65 -55 -6 0 -35 25 -65 55
l-54 55 119 0 119 0 -54 -55z"/>
<path d="M1139 2276 c-107 -42 -184 -109 -227 -197 -90 -186 -6 -419 182 -505
70 -32 130 -39 211 -25 113 20 192 70 251 158 87 130 86 292 -2 420 -68 99
-166 151 -296 158 -56 4 -94 1 -119 -9z"/>
</g>
</svg>
